# xmcd
#
# Track frame offsets:
#	150
#	12992
#	27461
#	46589
#	60012
#	71024
#	86270
#	99449
#	112929
#	124284
#	137622
#	152950
#	171460
#	185337
#	203533
#	217803
#
# Disc length: 3479 seconds
#
# Revision: 1
# Processed by: cddbd v1.5.2PL0 Copyright (c) Steve Scherf et al.
# Submitted via: audiograbber 1.83.01
#
DISCID=ca0d9510
DTITLE=Wes Loper - Wes Loper Live
DYEAR=2010
DGENRE=Country
TTITLE0=You've Always Got Me
TTITLE1=All In The Same Boat Now
TTITLE2=Shreveport To L.A.
TTITLE3=My Favorite Spot
TTITLE4=Lousiana Saturday Night
TTITLE5=Look Our Way
TTITLE6=Can To Cain"t
TTITLE7=Graiin Of Salt
TTITLE8=Simple Life
TTITLE9=She Cranks My Tractor
TTITLE10=Love Changes Everything
TTITLE11=Like The River
TTITLE12=You Make It Hard
TTITLE13=Keep On Growin'
TTITLE14=We're Gettin' Outta Here
TTITLE15=What I Got/I'm Your Captian
EXTD=
EXTT0=
EXTT1=
EXTT2=
EXTT3=
EXTT4=
EXTT5=
EXTT6=
EXTT7=
EXTT8=
EXTT9=
EXTT10=
EXTT11=
EXTT12=
EXTT13=
EXTT14=
EXTT15=
PLAYORDER=
